/* XPM */
static char *_71b7616f3b14310c77a8d6f161c98a4xtj6vKsZ2zIYd6H0[] = {
/* columns rows colors chars-per-pixel */
"64 64 5 1 ",
"  c #CDCE4A",
". c #C1BC4E",
"X c #B7AC4F",
"o c #9D8F39",
"O c #E1E351",
/* pixels */
"         . .XXooXX. ..     ..XXX.....    XX..    ....XX...   OOO",
".  ..     ...XXX.....  .  ..XXX..... .. .... . . ...XXoX..  O OO",
" ...  OO OO  .. ...    ..   ..X.  ....    ..   .. ..XooX.     O ",
"  .  OOOO .      ... O..   ....  .......   ..   . .Xooo..    O  ",
"    OOO    .  ....    O O   .....XX.......         XooX.  ..  . ",
"     O         ..X.  OO OO    ..XXooX....   . ..   .Xo..   ...  ",
" .  O   .   ...XoXX. OOOOO   ...oXXoo..    .    ....X. . .  ... ",
" . .O    . ...XoooX. O O O ....XoooooX.O  ...  .......    .  .  ",
"  ..   . . .Xooooo. O OO    .. XooooX.  OOO ...   ...  .        ",
"  ... .. .. .XoooX.   O   ... ..Xoo..  . OOOO ..    ...  ...  . ",
".  .. ....   ..XX.   O  ...  .....  ..  .  OOO  .       ...  ...",
"   .  ...   ....XX.      .. .  .          OOOOO      .........X.",
"X.  .  ..  .  ...   . ..  ..     ..    OO    O X.   ....  ...Xoo",
"oX.    .  ..   .   ....    OO  ..  .  O  OO   XXX.    ...  .XXoo",
"oo. .      ..  O  ...  .. O  ..         OOOO ...XX.. ..     Xooo",
"oo. ..  .     OOO.  OO  ..  ....     ..  O OO .X...     .   .ooo",
"oX .... ..  OOOO   OO  .....      OO....     O .     ...   ..Xoo",
"X. ...  .   .O   ..  ..... ..   OOO  .  ..  .     .   . O  . XXo",
"...... ..  .    .     . .    OOOO            .   ...   OOO  ....",
". .. . ...    ....  ..   ..   OOOO  .     ..      ..  O  OO  . .",
"  ..   ..   ....           .     ...    .Xo... .  .     OO .... ",
"   .  ..  .. .    . .   ..   OOO...   ..Xooo. .  .   .   O ... .",
" .    .          ...  ..   OO O   ......ooooX..    .  .   ..  ..",
" ..    . .  .     .... ..          ...  .XoX....  ...    ..  .. ",
". ..    ....    .  .. O  OO     .XX..     .. .     .X.  .    O  ",
"  ...   .XXX..   ..  OOO  OO  ..XXXX... .        ..XX.....  O  .",
"   . . .XXooXX.     O O        ....X..   ...    ..XXXX.X.. OO . ",
"  .. .  XoooXXX..        O      ..X.      ... O.XXoooXX..  .OO..",
"  . O    XoXX...  ....    O  ...  ...  ....   OO.oooooX.. . OO .",
" .  OO    XX..  ....XX..    ...    .  . ..  . OO.XooooXX  .. O  ",
" . OO O     .  ...XXX.....    .. ..        . OO   .Xoo..   .  O ",
"   OO  .     ...XXXXXX.X.   .   ..    ..    OO O . XoX.      .  ",
"  OO  ..  . ..X..XXXXXX....  ..    ....   OOOO      ..  .   ..  ",
".  O ..   ...XXXXXoooXXXX...        ..  OOOOOOO    ..   ..  ... ",
".     . . .XXXXXXoooooXXXX.X...  .    OO  OOOO  . .. . .X..  .X.",
" .  O    ..XXooXXXooXXXX....XX...    OO O.  O  .   ..  XX.  ..XX",
"    OO  .. .oooXXXXXX....XX.......XX  O   .  ....     .X.   .XXX",
". . OO  .  .XoXXXoXXXX.  X...X..XooX. .. ...  ..  O   ..  . .X.X",
".. OO      ..XXXoooX..  ...XX..XoooXX.     ....    O   .  ..XX..",
" .. OO O    ..XXooX.. ..XXXX....XoXX...  .  ...   OOO    .X..X..",
"  .  O OO    .X.X.....XXXX..  .. ....     ...X . OOO  ...XoX.. .",
"        O    ...XX..XX.X...  ..   .  .  ..XoXX..  O ....XXoo..  ",
"    .    O  ... ..X.....   ..  O.      ..ooooX.X. ...  .Xooo.   ",
"  ....      . .  .....   ..    O .   OO.XoooooX..  ...  XooX .  ",
".  ..    ...     ...    ..  O O  ..OOO  XXoooXX...     ...XX ...",
"...    ......   . .  O       OO ..  OOO  .XoXX...    O  ...X. ..",
"..  ...X..  ..    ..  OO  OOOO  . O  O    .. ......   OO  .XX...",
".. ..XooXX    .     ..  OOO   ..   OO      .. ......   OO X.X.. ",
"... XooooX.  . O O   ... OOO   ...    ...      ..XXX..OO   .XX  ",
". ..ooooo.. ..  OOO   ...     ...   .XX. .    ..XXX.. OO   .XX  ",
"  ..ooooX..  ..OOO    .....       ..XX..    ....X...  O   .XX.. ",
"  ...ooX..   ... OO  .....     .......    .......X...  O  .X.. .",
" ..  ....     ..  ...XX..   ....XX.  .. .  ........      .XX....",
"..  .. .    . .    .XoXX...  .XXooXX.    ...  ....  O   .XooX...",
"....      . ..   ...ooooX....XXooooo..    .     .. OOOO..ooooX..",
" .  .      ..   ....XooX...XXXXooooX.  .        .   OO .XoooooX.",
". ..  OO        .XX..XXXXX..X.XXooXX ... OO  O . .. .   XXooXXX.",
"  . OOO  O     .XX....XXXXXX...XX..   . O OOO     ..  . .XXXXX..",
" . OOOOOO    .....X.X.XXXXX.  ....  ....  OO  ..      ....XX.XX.",
".. OOOOO  ..  .......XXX.....  .     ....  O   .... .X........XX",
" .OOOO ....  .XXX....  ... O O    ..  .   ..     ...XXX.....XXXX",
"  OO    ..  .XooXX....      OOO .  ...  .oXX..  ..XXX.....XXX...",
".  OO     . XoooooX.. ..  OOOO ...  .. .oooX...  ..X.X..X..X. . ",
"..          .XoooX..    OOO   .  .... ..XoooX.  . .......X.  .O "
};
