/* XPM */
static char *_8232777bb5b4a97f9f033f0da22ab7ffIOkiFqJdlI2CIF3[] = {
/* columns rows colors chars-per-pixel */
"64 64 9 1 ",
"  c #318D8C",
". c #36948E",
"X c #398382",
"o c #3B9997",
"O c #369D91",
"+ c #3A8E8C",
"@ c #1F5752",
"# c #2E5F51",
"$ c #287067",
/* pixels */
"      ...XX....X......X.XX  ....  ..XXX.........XX...ooXX  .....",
"    ...oo.XX.XX.....XXXX   .o.  ...oo.XX....ooXXX.o...ooXX  ....",
"   ..oo.......XX...oooo.. oo.  ..oo..X....o..ooXXX.oo...ooo. ...",
"...ooooo..oo....ooooo...ooo.... oooo.......ooooo..oo...ooooo...X",
" .ooOOOO+OOOOO++++++OO++++++X++X+OOO+++X+++++XX+++++++++OOOOo.XX",
" ..oOO++++++++XX++XXX+++XXX++XXXX+++O+XXXX++XX+XXXXXX+++++OOoo X",
"..o.O+@@@@##@@#$X$$$$$##$$$$$$####@#@@##$$$X+X$$$###@@##@@+Oo. X",
"..o.O+@@########$X$#########################X$###########@++.o  ",
" o..++@#OOOO++OO++++OO++OOOO++XX++OOO+XX++XX++XX++++++++#@XOoo. ",
" .. +X@#OOO+OO++++X+XXX++++XXX++XX++XX+++XXXX++XXX+X++++##XOo..o",
". . OX##O++++XXXX++XX++XX++$$+++X++XX++X$$++XXX+++XXXX++##X+..oo",
"    O+##O+XXX+++XXXX++X+XXXXX$X+++X++XXXXX$$$X+++XX$XX++##++..o.",
"    O+##+++X$$####$$####$$$$$######$##$$$$$$X$$#$$$$$XX+#@++.o..",
" . .OX##+X+$$################################X$$##$$XXX+#@X+.o. ",
" ...+X$#+X$X##OOOO+++XXOO++XXOOOOO++XX$$X+++++OOO+#$X+XX##+X.. .",
"  ..+X$#++$X##OO++++XXXX++X+XX+++++X++XXXXXX+++X+O#$X+XX##XX.. .",
". ..XX##++X+$#O+XX+++$$XX$$XX+++XXXXX++$$XX++XX$X+##XX+X#$X+..  ",
". ..X+@#+X+X$#+++XXX$XXXXX$$$$XX++XX+XXX$$XXXXXX$+##$X++#$X+ .  ",
". o.+X@$XX+X$#+XXX@@@@##$$$#$$$$$$##@@#@###$$$XX++#$$XX+#$X+. X ",
" ..o+X#$$X++##XXXX@@########################$$+XO+#$X$X+#$XX.  X",
".o.o+XX$XXX+##XX$X@#+++++XXX+XXXXX+++X+++XXX#$+X+O##X$XX##$+o. X",
".ooo+X#X+X+X##X+$$##X++XX++XX++XXXXXXXXX+++X#$X++O#XXXXX#$$+o..X",
"..ooXX##+++X##X+$$##++####$$##$#$$########X+##XX++XX+XX+##$+.o. ",
"..o.X$##++XX$#+X+$##+X##$$$$$$$$$$$$$$$$##XX##X+X+X#X+X+##XX.oX.",
" ...X$#$X+XX$#XX+$@#+X#$X+++XXXXXXXXXX++$#XX#@$XX+#$X+XX#$+X..X.",
" ..o+$#$+X$X$#X+XX##+X#$++XX++XXXXXXX$X+$#XX##$XXX#$XXXX#$++...X",
"...o+X$$+X$X##++XX@#+X#$+X####$$$$####$X$#X+#@$X+X#$$X+X##X+.oXX",
". ..+X$$XXX$$#+XXX@#+X#$+X##$$##$$$$##$X$#X+#@X++X#$$XX+##X+o..X",
"  o.XX$#+X$$##+X$X##XX$$XX#$X++XXXXX##XX$$XX##X+XX##$XX+##XXo...",
"  ooX+$#+X$X##+X$X##XX#$+X$$++X++XXX$#XX$$X+##XX$X##$XXX##+X....",
"  oo++$#+$XX##XX$+$#X$#$+X#$+X$#$#XX$$XX$#X+#$X$XX##X+X+##X+.o. ",
" o.o+X$#+$X+$#+XX+$#+$#$XX#$+X$$##XX$$XX$#XX#$+$XX#$X+X+##X+.oo ",
" ..oXX##X$++$#+X+X$#+X$$X$#$XX$$$#$X$#XX$$X+#$+XX+##XX++#@XXo.o.",
" ...X$##XX+X##XX+X##+X$$X$#$XX$###$X$#XX$$X+#$+XX+##X$++#@XXo.. ",
"....$+#XXXXX##+XXX##XX$$XX$$XXXXX$XX$$X+$#X+#$XX+X#$X$X+##XX..  ",
". ..$+X$+XXX$#++X$##XX#$XX$$XXXXXXXX$#X+$#X+##X$XX#$X$XX##XX.o .",
". o.$X$#+XXX$#O+X$##+X#$XX$$##$$$$$$$#$X$#XX##X$XX#$X$XX#$X$.o..",
"  o.XX$#+X$X$$O+XX##+X$$XX$$$$####$$#$X+$#X$##XX+X##XXXX#$XXoo..",
" ..o+X##XX$XX$++XX$#XX$$XXXXXXXX$$XXX+++$$X$##XXX+##XXX+#$X$ooo.",
"..oo+X##X$+XXX+X+X$#X+#$XXXXXXXXX++++X++$$X$#$XXX+##XX$+##X$o.o.",
"..o.+X##XXX+$XOX+$##+X###$$$$$$$$$$$$$$$$#+X#$XX$X#$X$XX##XX...X",
"....O+##XXX+#$OXX$##+$######$$$$$$##$$####X+#$X$X+#$X$XX##$X.X.X",
"...oO+##XXXX$#O+X$##++X$$$XXXXXXXXXXX+X++XX+##X$++##XXX+#$$X..XX",
"..ooO+##X+XX$#++XX##++++XX++++XXXX++XX++++++##X$X+##XXX+#$$X..X.",
"..o.++##+XX$##+X+X############################XXX+#$X+X+#$XX....",
"..o.+X##+X$X##XXX$#######$$$##@@#@##$$$$$$####+XXX#$X+X+##+X....",
" ..oOX$#X+$X##+XX+X$$$$XXXX++XXXXXXXXXXX+++XX+XXX+#$+XX+##X+....",
" ..oOX$#X+$X$#O+XX++XXXXXXXXXX$$XX+++XXX$$XXXXX+++##+XXX##X+....",
"  ..+X$#++$X$#O++OO++++XX++$$XX$$XXX++X$XXXXX+XX++##XXXX#$XX.o..",
".  .X$##++XX$#+O++OO++XXXX++X++XXXX+++++XX++XX++++$#X$+X##+X.o. ",
". .o$X##X+XX$$####################################$$X$X+#$X+oo.X",
"...o$+##XX+X$$$$#####$$$$$###$######$$$$##$$####$$$$$XX+#$X+o. X",
" .ooX+$#+X+XXXXXXXX$$XXXXXXX++XXXXX+++XX$$$XX++XXXX$$X++##+Oo.X ",
" .o.+X$#++X+XX$$XXXX$$X++$$XXX+X$XXXX++XXXXXXXXXXX$$XX++##+O..XX",
" .. +X##++XXX$XXXXXXX++XXXXXXXXXX$$XXXXXXX+++X+XX++++++O#@O+.. X",
"  . ++@#+++++XXX++X+++XX++++XX++XX+++++XXXX+++OO++++OOO+#@++... ",
"   .++@#######################################XX$####@##@@+Oo...",
"   .O+@@##@@#####$$$##$#$$$###$$$###$$$$$$##$$#$@@####@@@@+Oo...",
" . .OOO+++++XXXXXXX$$$XX+XX$$$XX+X++XXXX++O++XXXXX++++++OOOOoo..",
" ...O++OO+OO++++XX+XXX++XX++XX++XXXX++OOOO++XXX++OOO++OO+OOOoo.o",
" ..o..oooo..oo.....  ..ooOo.....oo......oo...oo.oo..oooo..ooo.oo",
"  ..oooo..ooo.oo.   ..oOO..   o..ooo.....oooo....oo..oo.o  ...o ",
"   ..oo..oo..oo...      ..   . oooo..     .ooo  XX  ...   ..    ",
"        o...          XXXXXXXX    .           XX XXX            "
};
