/* XPM */
static char *sandstone_bottom1687107116[] = {
/* columns rows colors chars-per-pixel */
"64 64 6 1 ",
"  c #C6AE71",
". c #D1BA8A",
"X c #D5C496",
"o c #DAD2A3",
"O c #E3DBB0",
"+ c #E7E4BB",
/* pixels */
"   .XX..XXoOoX...XXXOO+OOoX.XoOOoooOOOOoOO+++OoXX....XXXoooX..  ",
" ..XX..XoOOOOOo.XXoOOOOooo..XoOOOoOOOooOO+++++OOXX.XXXoooOooXX. ",
".XXXXoXOOOOOOOOO..XXoOooX..XXXoOoXoOooOOoO++OO++oXX..ooOOOOXX...",
"XXXXooOOOoOOOOOX...X.oXX......XoXXXooOoOooO++O+ooX..XoOOOOOOooX.",
"XXooOOOOooooOOoXX...      ...XXXXooooooooXoOOoooX...oOoooOOooX.X",
"XXXoOOOOoooOOoooX.   .XXX.   .XXooXXoooXXoOOooXX.X.XooooOOOOXXXX",
".XoXoOOoOOoooooX. .oooOOOoX..  .XXXoooXXXXXoXX.....XXooOooOoooXo",
".XXooOOOOoooXXX...ooOOOOOOooX.  ..XXoX.X...X.XX.....XXoooooooooX",
"..XXooOooooooX..XoOOoooooOOooX..  .XXXX..  .XX. .XXX..XXoooooXX.",
"...XXXoooooXX..oOOOOOOoooooOooX..  . ..   ...  .XXooX...XoXX...X",
"X.XXXoooooXX..oOOOoOoOOoooooXooX..  .... ...  XXoooXXX. ....XOoX",
"XX.XoXXooX..XOOOooooOooooX.XoooX.  ...XXooX....XXoXX.  ..XXoOOOo",
"Oo .XXXXX..XOoOOOooooooXX.XooooX. ..XXoooO++OXX..XX.  .XXXO+++OO",
"OO. ..X..XoooOOOoOooooXoXXooooXX. XooOoO+++OooXX..  .XX.XooO+++O",
"Ooo   ..XoOOOOOooooXoXXXooXooOX. .ooOO++++OOOOOoooX...XXoOO+OO++",
"oOo.   .XXoOOoOoooooX.XooooOOo.. XoO+++++OO+OOOOoooX. .ooo++oOO+",
"oXo.. .XoooOoooooXX..XooOOOOoX. X+OOOO++OO+++OooOoooX. X.ooOoooO",
"XXX.X XXXooXooooooXXXooooO+O.. XOO+OO++OO++OOOOoooooXX ..Xoooooo",
"oX.Xo. .XXoo..XooooooXoOO+oX. .ooO++OOO+OoOOoooooooOoX..XOooOOoo",
"ooXoO..X.ooooX.XooooooO+++O.  XoooO+OoOOoOOoooooOOOoooX.X+OOOooo",
"oooO+O..XXOoooXooOOooO++OoX  .XooOOOOooooooOXXoooOOOoX..oo++OOOo",
"oooo++.XXooOOOooOOooOO+OoX. .XoOOOOoOooooooooXXOooOXoXX XOO++Ooo",
"oooO++O.XXoooOOOOOOOooXXXX  .XooOOooOOooooooXoooOOooXX. XXO+Oooo",
"ooOOO+OO..XXooOOOOOOOooX.    XXoOooooOooooooooOOOooX... .XoOoooo",
"oOoooO++oX...XXoOOOoo..   .. .XXooooooOoooooXooOXoXXX.  ..oXXooo",
"ooooooO++OoX...XXX..    ..X.. XooooooooooooX.XoooXX.   .. .Xoooo",
"ooooooooOooooX..X.  .XooO+oX.  XXXooXooooX..XXXX..  .    ...XXoo",
"oooooXXoooooX.X..  .Xo+++OOooX .XooXooXXX.....  .XXXX.. ..XX.XXo",
"oooXXXoXooooXX.  .XXO+OO++OOOoX  .XXoooXXXX.  ..oO+++OX.  .XXooo",
"XoooXooO+ooXX. ..XXo+++OO+++OOoX...XXoXoXX.  .oO++++OOoo.  .XXoo",
"XooooO++OXXX.  .XOO++OooOOO+++OoXX..XXX.X. XOO++OO+++++OoX.  .XX",
"oXooOOOOooX.  .oooOOoooOOOoO+OoooXX.X....XoOO+O++OO+O+++OoXX. .X",
"XoXoooOoXX... XooOoooooooOoooOOooooX.X..XoOOOoOOOOO+OoOO++OoX  .",
".XXoXooo..X. .XXooooooOooooOOooOOooo...XXooOooooOO+OoOoOO++Oo.  ",
"..XXooXXX... XXooXoooooOoOOOOO+OoooX..XXXXooOoooOoOOoooooOO+OX .",
" . XXX.  .. .XoXXooooOOOOO++O+OooooX ..XoooooXoOoooOOoooOoOOoo .",
"  ....X.  ..XXXoXXooOO+O++OOoOooooXX. XooooXXXXooooOoooooooOOX..",
" ...XXXX.X.X.XooooooooO++OooooooXXX.. ooXoooXXoooooooooooooOoXX.",
"..XXoXXoooXX..oooooooooOooooooooo.X.  XXooooooXXXooooooOOoooXoXX",
".XooXooooXXX. oOOooOooooooooXXooXX.. .XXXooOoooXXXooooooOOooooX.",
".XXoooOoooXoX .o++OooooXoooooX.X..  ...XoOOOOoXoooooooooooOooX..",
"XXoooOOOoooXoX .O+++OoooXXooXXX.   .   .XoOOooooooooooooooooo...",
"XooOOOooOoooo.  oOOO+OOoOXXXX...XXO+X.   .ooOOOoooOooooooooooX. ",
"XoOOOooooXooX.  .XO+++OOooXX..XoO++++OX . XXooOOoooOOOooXoooX.  ",
"ooOoooooooXX.  . .XoO+OoXX...XO+++OO++OO+o...XooOOOOOoOooXX..  .",
"XoooOOooXXX. .......oOoXXXX.Xo++OOO++OOOO+o.XXXoooOoooXXXX..   .",
".XoooOOOoX...XoooXXX.  .X..XX+OOOOooOoOOoOOo...X.  .XooXX.  .. .",
"XoooooOo...XoooOooooX.  . .X+++OoooooooOoooOoX..  .X. ..   ..X. ",
".XoooXXX.XXOO+++OooXXX..  X.+OooXXXoooooooooooXX...    ....XX.X.",
"..XXooX.XXooOO++++OoooX. ..XOOoooXXXXooooooOoXX.X...  ....XXXXoo",
"oX......ooo+++OOO++OOooX..XoOoOooooXooooooOOOoXoX..  .XXX..XooOo",
"oooX...XoO++OOOOOOO+ooXX.XoOOooooooooooooO++OOooX. ..XXoXXX.XooO",
"oOXXX.XoO+OOOoOOOOOoOooX.XOOoOoOoooooooooooO+OoX.X.XXoO++OoXXXXo",
"OoooX.XooOOooOOoOOoooooo .O+OoOOOooXooooooooooXXX..XoO++OOOoXXoo",
"OOoXoX.oOOooooOooOOoXooX .oO+OOoooooXXoooXXXoXX.X.. XXXO++++OoXO",
"OOOOoo.XoOoooooOooOooXXX  XO++OOoooooX..ooX.Xo.. . ..XooO++Ooooo",
"oOOooX..XoOooooooOooooX.. XXO+++OOooooX..X...   ..  ...XoOO+++oo",
"oOooooX.XXXoooooXooooX.. .Xoo++OOooOoXXXX..   .  ..  .XoooOO+++O",
"ooOOooXX.XoooooXooXX.   ...XooO+OOOoXXX..    ...XoXX. .XXoXoOOOo",
"oOoOOooX .XXooXXX...  ..X...XXoooOoX....  ... .XoooXXX..XXoXXOXo",
"ooXoooooX ..XXXX.X. .XOXXXX..XX.....XXO++oXX..XooXoooXXX..X.XX.X",
"XXoooXoXX  ..XX...XoOO+OoX........XooOOO++OoX..XXXXoooX. ..  ...",
".XXXooXX..  ...XX.oO+++OOoXX..XXXooOO++++O++OoX..XoXXX...   ...X",
"..XooX..........XXXoO+OOoXX..XXooOOoOO++O++OOOOX..XXX.XX..    .."
};
