/* XPM */
static char *sandstone_normal1687107116[] = {
/* columns rows colors chars-per-pixel */
"64 64 7 1 ",
"  c #EDEBCB",
". c #E7E4BB",
"X c #E3DBB0",
"o c #DAD2A3",
"O c #D5C496",
"+ c #D1BA8A",
"@ c #C6AE71",
/* pixels */
"            ..      .  .    ..     .        ......XX...X.....XXX",
"....    .....    ......   ... . ...   ..  ......XXX...XXXX....Xo",
"X..  ....X.. ...  ...X.. ...XX....  ..XXX..XXX.XXXXXXX.XX...Xooo",
"..... ....XXX.........XX.XX..XX..X...XXXXXX.XXXXXXXXXXXXXX.XXXoo",
"XXX.X..X.XXoooXX.X..XX.XoX.ooXoXXXXXooXXooXXXoooXXoXXXooXXXXoooO",
"XooXXXX.oooooOooX..XooXXXoooooXXXooooXXoooOoXXooooXXoooooXoooooO",
"ooXXoooOOooOooOOoooooOooooOOOoooooooOOoOOOooooooooooOoOOooOOooOO",
"oOoOOoooOOOOOooOOOooOoOoOOOOoOOOooOOOoOOOOOOoooOoOoooOOoOOOooOOO",
"O+++OOO+++@++OO+OOOOOO+OOO+OOO++OO+OOO+OO+++OOOOOoOOOO++OOOO+OO+",
"OO+++O++@@@@+++OOO+O++++OOO++++@@+++OOO++++@+OO+O+OOOOO+++++OO++",
"+++@++@@+@@++@++++++@+@+++++++++@@@++++++@@++++++@+++++++@@@+++@",
"@@@@@@@@@@@@@++@@++@@@++@@@+@+@@@@@@@@+@@@@@@@++@@@@++@@@@@+@+@@",
"Xo@@@+@@@++OXoXXXooooooOO+OooooO+@++OOoooX..XOO++OO+@@+OOOX...XX",
"XX+@+@@++OoooXXXoXooooOoOOooooOO+@OooXoX...XooOO++@@+OO+OooX...X",
"Xoo++@++OoXXXXXooooOoOOOooOooXO+@+ooXX....XXXXXoooO+++OOoXX.XX..",
"oXo+@@@+OOoXXoXoooooO+OooooXXo++@OoX.....XX.XXXXoooO+@+ooo..oXX.",
"oOo+@@+OoooXoooooOO++OooXXXXoO+@O.XXXX..XX...XooXoooO+@O+ooXoooX",
"OOO+O@OOOooOooooooOOOooooX.X++@OXX.XX..XX..XXXXoooooOO@++Ooooooo",
"oO+Oo+@+OOoo++OooooooOoXX.oO+@+ooX..XXX.XoXXoooooooXoO++OXooXXoo",
"ooOoX++O+ooooO+OooooooX...X+@@OoooX.XoXXoXXoooooXXXoooO+O.XXXooo",
"oooX.X++OOXoooOooXXooX..XoO@@+OooXXXXooooooXOOoooXXXoO++oo..XXXo",
"oooo..+OOooXXXooXXooXX.XoO+@+OoXXXXoXooooooooOOXooXOoOO@OXX..Xoo",
"oooX..X+OOoooXXXXXXXooOOOO@@+OooXXooXXooooooOoooXXooOO+@OOX.Xooo",
"ooXXX.XX++OOooXXXXXXXooO+@@@@OOoXooooXooooooooXXXooO+++@+OoXoooo",
"oXoooX..oO+++OOoXXXoo++@@@++@+OOooooooXoooooOooXOoOOO+@@++oOOooo",
"ooooooX..XoO+++OOO++@@@@++O++@OooooooooooooO+OoooOO+@@@++@+Ooooo",
"ooooooooXooooO++O+@@+OooX.oO+@@OOOooOooooO++OOOO++@@+@@@@+++OOoo",
"oooooOOoooooO+O++@@+Oo...XXooO@+OooOooOOO+++++@@+OOOO++@++OO+OOo",
"oooOOOoOooooOO+@@+OOX.XX..XXXoO@@+OOoooOOOO+@@++oX...XO+@@+OOooo",
"OoooOooX.ooOO+@++OOo...XX...XXoO+++OOoOoOO+@@+oX....XXoo+@@+OOoo",
"OooooX..XOOO+@@+OXX..XooXXX...XoOO++OOO+O+@OXX..XX.....XoO+@@+OO",
"oOooXXXXooO+@@+oooXXoooXXXoX.XoooOO+O++++OoXX.X..XX.X...XoOO+@+O",
"OoOoooXoOO+++@OooXoooooooXoooXXooooO+O++OoXXXoXXXXX.XoXX..XoO@@+",
"+OOoOooo++O+@+OOooooooXooooXXooXXooo+++OOooXooooXX.XoXoXX..Xo+@@",
"++OOooOOO+++@OOooOoooooXoXXXXX.XoooO++OOOOooXoooXoXXoooooXX.XO@+",
"@+@OOO+@@++@+OoOOooooXXXXX..X.XooooO@++OoooooOoXoooXXoooXoXXoo@+",
"@@++++O+@@++OOOoOOooXX.X..XXoXooooOO+@OooooOOOOooooXoooooooXXO++",
"@+++OOOO+O+O+OooooooooX..XooooooOOO++@ooOoooOOoooooooooooooXoOO+",
"++OOoOOoooOO++oooooooooXooooooooo+O+@@OOooooooOOOooooooXXoooOoOO",
"+OooOooooOOO+@oXXooXooooooooOOooOO++@+OOOooXoooOOOooooooXXooooO+",
"+OOoooXoooOoO@+o..XooooOoooooO+O++@@+++OoXXXXoOoooooooooooXooO++",
"OOoooXXXoooOoO@+X...XoooOOooOOO+@@@+@@@+OoXXooooooooooooooooo+++",
"OooXXXooXoooo+@@oXXX.XXoXOOOO+++OOX.O+@@@+ooXXXoooXooooooooooO+@",
"OoXXXooooOooO+@@+OX...XXooOO++OoX....XO@+@OOooXXoooXXXooOoooO+@@",
"ooXoooooooOO+@@+@+OoX.XoOO+++OX...XX..XX.o+++OooXXXXXoXooOO++@@+",
"OoooXXooOOO+@+++++++oXoOOOO+Oo..XXX..XXXX.o+OOOoooXoooOOOO++@@@+",
"+OoooXXXoO+++OoooOOO+@@+O++OO.XXXXooXoXXoXXo+++O+@@+OooOO+@@++@+",
"OoooooXo+++OoooXooooO+@@+@+O...XoooooooXoooXoO++@@+O+@++@@@++O+@",
"+OoooOOO+OOXX...XooOOO++@@O+.XooOOOoooooooooooOO+++@@@@++++OO+O+",
"++OOooO+OOooXX....XoooO+@++OXXoooOOOOooooooXoOO+O+++@@++++OOOOoo",
"oO++++++ooo...XXX..XXooO++OoXoXooooOooooooXXXoOoO++@@+OOO++OooXo",
"oooO+++OoX..XXXXXXX.ooOO+OoXXooooooooooooX..XXooO+@++OOoOOO+OooX",
"oXOOO+OoX.XXXoXXXXXoXooO+OXXoXoXoooooooooooX.XoO+O+OOoX..XoOOOOo",
"XoooO+OooXXooXXoXXoooooo@+X.XoXXXooOooooooooooOOO++OoX..XXXoOOoo",
"XXoOoO+oXXooooXooXXoOooO@+oX.XXoooooOOoooOOOoOO+O++@OOOX....XoOX",
"XXXXoo+OoXoooooXooXooOOO@@OX..XXoooooO++ooO+Oo++@+@++OooX..Xoooo",
"oXXooO++OoXooooooXooooO++@OOX...XXooooO++O+++@@@++@@+++OoXX...oo",
"oXooooO+OOOoooooOooooO++@+Ooo..XXooXoOOOO++@@@+@@++@@+OoooXX...X",
"ooXXooOO+OoooooOooOO+@@@+++OooX.XXXoOOO++@@@@+++OoOO+@+OOoOoXXXo",
"oXoXXooO@+OOooOOO+++@@++O+++OOoooXoO++++@@+++@+OoooOOO++OOoOOXOo",
"ooOoooooO@++OOOO+O+@+OXOOOO++OO+++++OOX..oOO++OooOoooOOO++O+OO+O",
"OOoooOoOO@@++OO+++OoXX.XoO++++++++OooXXX..XoO++OOOOoooO+@++@@+++",
"+OOOooOO++@@+++OO+oX...XXoOO++OOOooXX....X..XoO++OoOOO+++@@@+++O",
"++OooO++++++++++OOOoX.XXoOO++OOooXXoXX..X..XXXXO++OOO+OO++@@@@++"
};
