/* XPM */
static char *_cff785aa4f5409d9448f2c231486ddfcMceH0LqTVoMLZ2D[] = {
/* columns rows colors chars-per-pixel */
"16 16 10 1 ",
"  c None",
". c #483F50",
"X c #664D6E",
"o c #7F5583",
"O c #975E95",
"+ c #AB629C",
"@ c #CCAFAA",
"# c #D8C0B6",
"$ c #E3D0C4",
"% c #E9DBCC",
/* pixels */
"                ",
"                ",
"                ",
"       +@       ",
"      +X+$      ",
"     OXOO+$     ",
"    oXOOOO+%    ",
"    XoXOO+#$    ",
"    .XO+@#O$    ",
"    ..XXoO+#    ",
"    X...O++#    ",
"    XX..O++@    ",
"    .XX.O+O+    ",
"     XXXOOo     ",
"     XXXOoo     ",
"      XXoo      "
};
