/* XPM */
static char *chorus_flower_dead1687107299[] = {
/* columns rows colors chars-per-pixel */
"64 64 12 1 ",
"  c #8F718F",
". c #7C5B7C",
"X c #5B345B",
"o c #562E56",
"O c #472147",
"+ c #634561",
"@ c #401A40",
"# c #3A143A",
"$ c #A49D7E",
"% c #998E5F",
"& c #C9C5B0",
"* c #E2DDBC",
/* pixels */
" ....XXXXXoooooOOoXXXXXoo+....++++..+.+XXXooXXXoooXXXXXX.    ...",
"  ..XXXXXXXooOOOOOooXooXXXX++...+..++..+XXXooooooXX..    ....  .",
". .XXXoXXooOO@OO@@OoooXXXooXXX++..++....++XXXooX..    ..XoXXXX. ",
"X. .XXXoooOoO@O@@#OOOoooooXXXXXX+..+.....+++oX..   ..XXooXXXXXXX",
"XX. XoooXXXo@@@@##@OoooOooooXXooX++..++X+....   ..XXXXXXooooXXXX",
"XoX .XoooXooO#@@##@@OooOOooooooXXX+.++XoXX..  .XXXXXXXoooooXXoXX",
"oXX. .XoooOo@##@#@#@OoOOOoooooXXXX..+XoXXXXX..XXXXoXXXXXOOooXXoo",
"oXoX  .XXoOO###@@###@OOOoOoooooXX+..XXoXoXXXXXXXXXXooXOOOOOooXXo",
"oooo.  XOoO@#@##@###@@OooOOooXooX. .XXXooXXooooXXoooOOO@OoooooXo",
"XoXoX  XoOO@@@#@##@#O@OoooOooXooX. XXoXoooOOooOoooOOOO@@OOOooOoX",
"XXoXX .oXO@@@#####@@OOOOooooXXoX. .XooXooooOOOooOoOO@O@#@O@OOooo",
"XooX. .ooO@O@####@@@OOoOooXooXXX  .XoXoooOOO@OOOOOOO@@##@@OOOoXo",
"XoX. .XoooOO####@#@@@Ooo..oXXXX. .XXXoooOO@@OOO@@O@@#@#@##@@OoXX",
"oXX. XXoooO@#@####@@@OOOXX...X.  .XXooOoOOO@@@OO@@@@##@@##@OooXX",
"XX.  XXXOo@@@@#@@##@@@OoOoX. .  ..XXoooOO@@@@@@@@@@@##@##@OOoXoX",
"X.  XXoOO@O@@O@@#####@OOoooX.   ..XooooOO@@@##@@@@@@####@@OoXXoX",
". .XXXooOOO@OOOO@#@#@@@OOoXXX.. .XXoooOO@@#######@@@@@@@@@OOXoXX",
".+XoXoOoOOOOOOO@@OO@#@@O@OXoX....XoXoooO@#@@######@@@@O@OOOooXX.",
"+XXooOOOO@O@OOOOOO@@@@@@@OooXX..XooXXoooO@@#####@@##@OOO@OooXX+.",
"XooOooOO@OO@@@@OOOO@@O@@OooXXX..XXooXXooOOO@@#@####@@@@OOoXoX+.+",
"oXooOO@@@@OO@@OOOOOO@OO@OoXoXXX.XXXoXooooOOO@@@@####OOOOooXXX.+X",
"oooOO@@@OOO@OO@@OOOOO@OOoXXoXoX.XXXXoXXoOOooO@@##@@@@OooooXX..XX",
"oOOoooO@@O@@O@@OoOooOOOoXXoXXoX .XXXXXoooooXoO#@@@OOoXoooXX+.+XX",
"XoOOoOoOOOO@@@OoooXoooOOoooXoX.  .XXXXXXoXXoOOO@OOooXXXoX++..XXX",
"XXXoOOOO@@OOOOooXXXXooXooooooX$$%%..XXXXXXooXXoOOoXXoXXX++..XXXX",
"XXoooOO@@OOOoooooXooXooXXooo$$&&$$%%....XXXXXooXoooXXX++...+XXXX",
"XXXXoXooOOooOXXoooXXXXXXXXX$&&&&&&$$%o.  ..XXXooXXXX... ..+XXXXX",
"XXXXXooooOOoooXXXXoXXXX.XX$&&&&&&$$$$%XX.  .XXXXX...   .....+XXX",
"+XXXXXXooXoooXXXXoXXXX.. $&&&**&&&&$$$%oX.   ..       ..++....++",
".+XXXXooooXXXXXXXXXX..   $&***&&&&&&$$%ooXXX.     ..++XXX+++++..",
"+..++XXXXooXXXXXX.    ..$&***&&&&&&$$$%%XooXXX....+++XXoXXXXXXX+",
"XX+..++XXXXXXX..    .XXX$&&&**&&&&$$$$%%XXooXXoX++XXXXoooXooXXXX",
"XXX+..+++X..    ...XXooX%&&&&&&&$&&&$$%%oXXXXoooooXXooXXXooooXXX",
"XXXX++..     ...XXoooXXX%$&&&&$$&&&$$$%%ooooXXXooXXXXoooXXXXXooX",
"XXXXX.  ....XXXXooooXXooo%&&$&&&&$$$$%%oooooooXXooXooXXoooXXXXoo",
"XXXX.  .XXooXXooXXoXooooO%$&&&$$&&$$$%%oOOoooXXXXXooXXoooooooXXo",
"X++...XXXooXXXXooXXOOOOOOo%$$&&$$$$$%%OOOooOoooXoOOoooooooooooXX",
"+..+XXXooXXXooooOOOO@@OOOOO%$$$$$$%%%XoOOOO@OoXoooOOooOOoooXooXX",
"..+XXXooooooOooOOOO@@OOOOOoo%%%%%%%%XXooOO@@OOooooooOooOOooXoXXX",
".+oXoXXXoooooOOO@@@OO@@OOOoooX%%%%.XXooOOO@@@OOOooOOOOOOOoooXXXo",
".XoXXooooooOOOOOO@@@OOOOOooOooXX .XXoooOo@O@@OOoOO@@OOOOOOooXoo+",
".ooXooooooOOOO@@@@@@@@OOOoOoooXX..XXooOooOOO@@OOO@@@@O@OoOoXooX+",
"+oXooooOoO@OO@@@@##@@@@OoOOooXX...XoXoooOO@O@#@OOOOO@@OoooXXXXX.",
"oXXooooOOOO@@@@@##@@@@OOoOOooXX..XooXXooOO@@@#@@OO@@##@OXoXXXX+.",
"oXXXooOO@@@@@@#####@OOOOOOooXXX .XoXXXoO@O@@@##@@@###OOooXXooX+.",
"XoXoooOOO@@@########@O@OOOooXX. .oXXoXooO@@@###@@#@#@OooooooX+..",
"XXoXooOO@@#@@#####@@##@@OoXoX.  XooXoooOO@#@####@@@@@@OOooXX. .+",
"XXooooOo@O@#####@@@@@###OoXXX. .XooXooOO@@######@@@@OOOoXXX. .+X",
"oXoooOooOO@@##@@@@@@@@#@OoXX. ..ooXooO@O@#######@@OOOooooXX  .XX",
"oooooOoOOO@@@@@@OO@@@#@OoXX  ..XoXXooO@@@#@###@#@@@OOOoXXX. .XXX",
"XoooOoooO@@@@@@@@OOO@@OoXX  ...XXXooooO@##@@##@@@OOXooOoXX .XXoX",
"XoooooOo@OO@@OO@OOO@@OOooX. .+.XXXoXooO@#@@@#@@@OOooXXXoo. XXooo",
"XXoooOOOOO@@@@OOOOOOOOooo...++..XXXXOoOO@@@#@@@@oOOooXooX .XoooX",
"XXXoooOOOOOO@@OOooOOooooX..+XX+.XXXoOOOOO@@#@@@OooXXooX.   .oXoX",
"XXXXXoooOOooOOooXooOOoXo..XoooX+.XXXoOOOO@#@@O@OoXXooX. .. .XXoo",
"XXXXooooooOoooXXooooXXoo.XoooXX+..XXooOO@@@@@OOoXXXXX..XXX. .XXo",
"XXooooooooooXXX.XXoooXX.XXXXoooX+.oXXoOO@O@@OOoXooXXX.XooXX. .Xo",
"ooXoooooXXoo..  ..XXXooXXoooooXX+++oXooOOO@OOooooXoX.XooXXX.  .X",
"XoooXXoooXX.  .   .XXXXooooXXXoX+.+oooooOOO@oOoXXXXoXXXXooXX.  X",
".XXooXXXX..  ...    ..XXooXXXoXXX.++oXoOOooOOoooXXooXXoooooXX  .",
" ..XXXXX.. .XXXXXX..   .XXooXXooX+.+XXXoooOOooXXXXoXoXXooXXXX. .",
"  ..XX.....XXXooXXooX.  ..Xoooooo+..XXXXooooXXoXXXXXXoooXXXoXX. ",
"..  ..  .XXooXXooXXooo..  .XXooXo...+XXXXXXXXoooXXXooXXXXXooo.. ",
"....   .XXoXoooooooXoooX.  .XXoX+...+XXXXXXoooXXXXXXXXXXXooX.. ."
};
