/* XPM */
static char *a4eb6b0775a4476cc83a3a205a9affc0WZvjuosu1UuDClcA[] = {
/* columns rows colors chars-per-pixel */
"16 16 4 1 ",
"  c #6A5A4E",
". c #443533",
"X c #796A58",
"o c #5A4943",
/* pixels */
"               o",
" XXXXXXXXXXXXXX.",
" X            o.",
" X            o.",
" X            o.",
" X            o.",
" X            o.",
" X            o.",
" X            o.",
" X            o.",
" X            o.",
" X            o.",
" X            o.",
" X            o.",
" Xooooooooooooo.",
"o..............."
};
