/* XPM */
static char *_a41458401d342629b7bcf9b854c368brwvLtFYnzYqWtASD[] = {
/* columns rows colors chars-per-pixel */
"16 16 7 1 ",
"  c #68402F",
". c #7A4830",
"X c #A26846",
"o c #B28142",
"O c #C59759",
"+ c #CBA65B",
"@ c #CDA544",
/* pixels */
"oOOo++++++++o. X",
"o@@XooXooXooX@+X",
"o@+oOOoOOoOOo++X",
"o@+o@@o@@o@@o++o",
"o@+o@+o@+o@+o++o",
"o@+o@+o++o@+oOOX",
"o++o++XooX++o@@o",
"o++o++o@@o++o@+o",
" OOo++o@+o@+o@+o",
"o@@XooX@+o++o@+o",
"o@+o@@o++o++o@+o",
"o@+o@+o++XooX@+o",
"o@+oOOoOOoOOo@+o",
"o@+o@@o@@o@@o++o",
"o@+o++o++o++o++o",
"o++oOOoOOoOOo++o"
};
