/* XPM */
static char *chorus_flower1687107298[] = {
/* columns rows colors chars-per-pixel */
"64 64 13 1 ",
"  c #997C99",
". c #7C5B7C",
"X c #5B345B",
"o c #562E56",
"O c #472147",
"+ c #634561",
"@ c #401A40",
"# c #3A143A",
"$ c #EED6EE",
"% c #FBF3FE",
"& c #D6BBD6",
"* c #A178A1",
"= c #AB8AAB",
/* pixels */
" ....XXXXXoooooOOoXXXXXoo+....++++..+.+XXXooXXXoooXXXXXX.    ...",
"  ..XXXXXXXooOOOOOooXooXXXX++...+..++..+XXXooooooXX..    ....  .",
". .XXXoXXooOO@OO@@OoooXXXooXXX++..++....++XXXooX..    ..XoXXXX. ",
"X. .XXXoooOoO@O@@#OOOoooooXXXXXX+..+.....+++oX..   ..XXooXXXXXXX",
"XX. XoooXXXo@@@@##@OoooOooooXXooX++..++X+....   ..XXXXXXooooXXXX",
"XoX .XoooXooO#@@##@@OooOOooooooXXX+.++XoXX..  .XXXXXXXoooooXXoXX",
"oXX. .XoooOo@##@#@#@OoOOOoooooXXXX..+XoXXXXX..XXXXoXXXXXOOooXXoo",
"oXoX  .XXoOO###@@###@OOOoOoooooXX+..XXoXoXXXXXXXXXXooXOOOOOooXXo",
"oooo.  XOoO@#@##@###@@OooOOooX$$$$ .XXXooXXooooXXoooOOO@OoooooXo",
"XoXoX  XoOO@@@#@##@#O@OoooOo$$%%%%$$XoXoooOOooOoooOOOO@@OOOooOoX",
"XXoXX .oXO@@@#####@@OOOOooo$%%%%%%%%$oXooooOOOooOoOO@O@#@O@OOooo",
"XooX. .ooO@O@####@@@OOoOoo$%%%%%%%%%%$oooOOO@OOOOOOO@@##@@OOOoXo",
"XoX. .XoooOO####@#@@@Ooo.$%%%%%%%%%%%%$oOO@@OOO@@O@@#@#@##@@OoXX",
"oXX. XXoooO@#@####@@@OOOX$%%%%%%%%%%%%$oOOO@@@OO@@@@##@@##@OooXX",
"XX.  XXXOo@@&&&&&&*@@@Oo$$%%%%%%%%%%%%$$O@@@@*&&&&&&##@##@OOoXoX",
"X.  XXoOO@==$$$$&&&*#@==$%%%%%%%%%%%%%%$==@@*&&&$$$$==##@@OoXXoX",
". .XXXooO=$$%%%$$$&*@=&&$%%%%%%%%%%%%%%$&&=#*&$$$%%%$$=@@@OOXoXX",
".+XoXoOo=$%%%%%%%$$&=&&$%%%%%%%%%%%%%%%%$&&=&$$%%%%%%%$=OOOooXX.",
"+XXooOOO$%%%%%%%$$$$=&$$%%%%%%%%%%%%%%%%$$&=$$$$%%%%%%%$@OooXX+.",
"XooOooOO%%%%%%%%%%$$&&$$%%%%%%%%%%%%%%%%$$&&$$%%%%%%%%%%OoXoX+.+",
"oXooOO@@%%%%%%%%%%%$&$$$%%%%%%%%%%%%%%%%$$$&$%%%%%%%%%%%ooXXX.+X",
"oooOO@@@%%%%%%%$%%%$&$$$%%%%%%%%%%%%%%%%$$$&$%%%$%%%%%%%ooXX..XX",
"oOOoooO@$%%%%%$&$%$$&$$$$%%%%%%%%%%%%%%$$$$&$$%$&$%%%%%$oXX+.+XX",
"XoOOoOoO$%%%%%$$&$$$&$$$$%%%%%%%%%%%%%%$$$$&$$$&$$%%%%%$X++..XXX",
"XXXoOOOO&%%%%%%$&&$$&&$$$$%%%%%%%%%%%%$$$$&&$$&&$%%%%%%&++..XXXX",
"XXoooOO@&$%%%%%$&=$&&&$$$$$%%%%%%%%%%$$$$$&&&$=&$%%%%%$&...+XXXX",
"XXXXoXooO&%%%%%$$&=&&&$&$$$$$%%%%%%$$$$$&$&&&=&$$%%%%%& ..+XXXXX",
"XXXXXoooo&$%%$$$$&===&&&$$$$%%%%%%%%$$$$&&&===&$$$$%%$&.....+XXX",
"+XXXXXXooX&$%%$$$$&=*=&&&$$$$$$$$$$$$$$&&&=*=&$$$$%%$&..++....++",
".+XXXXooooX&$$$$$&&&=**=&&&&$$$$$$$$&&&&=**=&&&$$$$$&+XXX+++++..",
"+..++XXXXooX&&&&&&&&&==**==&&&&&&&&&&==**==&&&&&&&&&+XXoXXXXXXX+",
"XX+..++XXXXXXX&&&&&&&&&==***==&&&&==***==&&&&&&&&&XXXXoooXooXXXX",
"XXX+..+++X..    =&$$&&&&&==****====**==&&&&&$$&=ooXXooXXXooooXXX",
"XXXX++..     .==&$$$$$&&&&==********==&&&&$$$$$&==XXXoooXXXXXooX",
"XXXXX.  ....==&&$$$$$&&&&&&==******==&&&&&&$$$$$&&==oXXoooXXXXoo",
"XXXX.  .XX==&&$%%%%$$$$$&&&&=*****==&&&&$$$$$%%%%$&&==oooooooXXo",
"X++...XXX=&&$$%%%%%%%$$$$&&&==***===&&&$$$$%%%%%%%$$&&=oooooooXX",
"+..+XXXo=&$$$$$%%%%%%%%$$$&&==***===&&$$$%%%%%%%%$$$$$&=oooXooXX",
"..+XXXoo&&&$$%%%%%%%%%%%$$&&=**=*===&&$$%%%%%%%%%%%$$&&&OooXoXXX",
".+oXoXXX&&$$%%%%%%%%%%%%$$$&=**==*==&$$$%%%%%%%%%%%%$$&&OoooXXXo",
".XoXXooo&$$$%%%%%%%%%%%%$$$&=*===**=&$$$%%%%%%%%%%%%$$$&OOooXoo+",
".ooXoooo&$$%%%%%%%%%%%%$$$$&=*====*=&$$$$%%%%%%%%%%%%$$&oOoXooX+",
"+oXooooOo&$%%%%%%%%%%%%$$$$=*======*=$$$$%%%%%%%%%%%%$&oooXXXXX.",
"oXXooooOO&$$%%%%%%%%%%$$$$&========*=&$$$$%%%%%%%%%%$$&OXoXXXX+.",
"oXXXooOO@@&$$%%%%%$%%%$$$$&=========*&$$$$%%%$%%%%%$$&OooXXooX+.",
"XoXoooOOO@&$%%%%%$$%%$$$$&=*==&&&&==*=&$$$$%%$$%%%%%$&ooooooX+..",
"XXoXooOO@@#&$%%%%$$$%$$$&&*=&&$$$$&&=*&&$$$%$$$%%%%$&@OOooXX. .+",
"XXooooOo@O@=$$$%$$$$$$&&&==&$$$$$$$$&==&&&$$$$$$%$$$=OOoXXX. .+X",
"oXoooOooOO@@=&$$$$$$&&&==&&$$%%%%%%$$&&==&&&$$$$$$&=OooooXX  .XX",
"oooooOoOOO@@@=&&$$$$$&=&&$$%%%%%%%%%%$$&&=&$$$$$&&=OOOoXXX. .XXX",
"XoooOoooO@@@@@==&&&&&&&&$$$$%%%%%%%%$$$$&&&&&&&&==OXooOoXX .XXoX",
"XoooooOo@OO@@OO@=&&&&&&&$%%%%%%%%%%%%%%$&&&&&&&=OOooXXXoo. XXooo",
"XXoooOOOOO@@@@OOOOOO**&&&$%%%%%%%%%%%%$&&&**@@@@oOOooXooX .XoooX",
"XXXoooOOOOOO@@OOooOOoo**&&$$%%%%%%%%$$&&**@#@@@OooXXooX.   .oXoX",
"XXXXXoooOOooOOooXooOOoXo*=&&$$$$$$$$&&=*O@#@@O@OoXXooX. .. .XXoo",
"XXXXooooooOoooXXooooXXoo.Xoo&$$$$$$&ooOO@@@@@OOoXXXXX..XXX. .XXo",
"XXooooooooooXXX.XXoooXX.XXXXoooX+.oXXoOO@O@@OOoXooXXX.XooXX. .Xo",
"ooXoooooXXoo..  ..XXXooXXoooooXX+.+oXooOOO@OOooooXoX.XooXXX.  .X",
"XoooXXoooXX.  .   .XXXXooooXXXoX+.+oooooOOO@oOoXXXXoXXXXooXX.  X",
".XXooXXXX..  ...    ..XXooXXXoXXX.++oXoOOooOOoooXXooXXoooooXX  .",
" ..XXXXX.. .XXXXXX..   .XXooXXooX+.+XXXoooOOooXXXXoXoXXooXXXX. .",
"  ..XX.....XXXooXXooX.  ..Xoooooo+..XXXXooooXXoXXXXXXoooXXXoXX. ",
"..  ..  .XXooXXooXXooo..  .XXooXo...+XXXXXXXXoooXXXooXXXXXooo.. ",
"....   .XXoXoooooooXoooX.  .XXoX+...+XXXXXXoooXXXXXXXXXXXooX.. ."
};
