/* XPM */
static char *eb14c5b570f74d129fc5bff46776066cRRmvllNCNkm5Gcoe[] = {
/* columns rows colors chars-per-pixel */
"18 18 11 1 ",
"  c None",
". c #443533",
"X c #59313B",
"o c #6F393A",
"O c #5A4943",
"+ c #80483D",
"@ c #93573F",
"# c #A36A41",
"$ c #CCAFAA",
"% c #E3D0C4",
"& c #E9DBCC",
/* pixels */
"                  ",
"                  ",
"                  ",
"     &&&&&&&&     ",
"    &........&    ",
"   &.OOOOOOOO.&   ",
"   &.OOOOOOOO.&   ",
"   &.OOO##OOO.&   ",
"   &+#$X##X$#+&   ",
"   &+#%o##o%#+&   ",
"   &+########+&   ",
"   &+###@@###+&   ",
"   &+##@..@##+&   ",
"    &++++++++&    ",
"     &&&&&&&&     ",
"                  ",
"                  ",
"                  "
};
