/* XPM */
static char *sandstone_smooth1687107116[] = {
/* columns rows colors chars-per-pixel */
"64 64 7 1 ",
"  c #EDEBCB",
". c #E7E4BB",
"X c #E3DBB0",
"o c #DAD2A3",
"O c #D5C496",
"+ c #D1BA8A",
"@ c #C6AE71",
/* pixels */
"            ..      .  .    ..     .        ......XX...X.....XXX",
"....    .....    ......   ... . ...   ..  ......XXX...XXXX....Xo",
"X..  ....X.. ...  ...X.. ...XX....  ..XXX..XXX.XXXXXXX.XX...Xooo",
"..... ....XXX.........XX.XX..XX..X...XXXXXX.XXXXXXXXXXXXXX.XXXoo",
"XXX.X..X.XXoooXX.X..XX.XoX.ooXoXXXXXooXXooXXXoooXXoXXXooXXXXoooO",
"XooXXXX.oooooOooX..XooXXXoooooXXXooooXXoooOoXXooooXXoooooXoooooO",
"ooXXoooOOooOooOOoooooOooooOOOoooooooOOoOOOooooooooooOoOOooOOooOO",
"oOoOOoooOOOOOooOOOooOoOoOOOOoOOOooOOOoOOOOOOoooOoOoooOOoOOOooOOO",
"O+++OOO+++@++OO+OOOOOO+OOO+OOO++OO+OOO+OO+++OOOOOoOOOO++OOOO+OO+",
"OO+++O++@@@@+++OOO+O++++OOO++++@@+++OOO++++@+OO+O+OOOOO+++++OO++",
"+++@++@@+@@++@++++++@+@+++++++++@@@++++++@@++++++@+++++++@@@+++@",
"@@@@@@@@@@@@@++@@++@@@++@@@+@+@@@@@@@@+@@@@@@@++@@@@++@@@@@+@+@@",
"              .  .    .. ....................................X+@",
"  ..........................XXXX..........XXX.............XXXo+@",
" .....XXXXoX..XXXXXXoX..XX.XooooooXX..XXoXXoXX..XX.XXXooooooOo+@",
" ..XXXoXXXXoXXXXXXooXXXXXXXXXoXooooXX..XXooOooXXooX.XXXooOOooO+@",
" .XooXooXooXXXooXXXooXXXoXoooXXoXOoOoXXooOOooooXXooXXooooooOOO+@",
" .XXooXXoooooXXoooXXoooXXoooXoXXooOOOoXXooOOooooOOooXXoOOoOOOO+@",
"...XXXoooooooooooooOooooooooooXXooOoooOOoooooOOOooooXoooOOooOO+@",
"...XXXXooooooooXooooOOooooOOXoXooooooOOoooooOOOooooXooOOOOOooOO@",
" ..XooXXXoooooXooooOOooOOOooXXoooooOoooooOOooOoXooooOOOoooooooO+",
" .X.XooXXXooOOooOOooooOOOooooXXooOOooOXoooOOOoooXXoooOOOooXooo++",
"..XXoXXXoooOOOOOooooXXooOOOooXooooOOOooXXOOOooXXXoooOooooXoooo++",
".XXXXoooXoOooOOoooXXXXXoooOOXoOooooOoXXXoooooooXooooooooXXXooo++",
".XoooOOoooooOOoooXXXooXXooooooOOooooooXoooXXooooooooooXXXoooXo++",
".XXoOOooooooooooXooXXooooooooOOooOooOooooooXXXXoOOOooooXXXooXXO+",
"XXXXXoOoooooooooooooooooooooooooOOOOooooOOooXXoOOOoooXXooooooXO@",
"X.XXooooooooOOooXXXoooooXXooooooooOoooOOOooXXoooOoooooXXoooooXO@",
"X..XXXooXooOOOOOoXXXoXXXXooXoooooooooOOoooooooOOoooooooooOoOoo+@",
"XX.XXXXXooOooOOoooooXXXXXXXoooXoooooOOOOoooooooOOoXXoooooOOooo+@",
".XXXooXXXoooOoooOOoXXooXXXXXXXooooOOOOooooXXooooooooXXooooOoOo+@",
"XXXooXXoooooooOooOOoooXXooXXXooooooOooooXXoXXXXooooXXoooXooOOo+@",
".XXoOoooooXooooOOOOOOOooXXXXoOoOOoooooXoooooXXoooooooooXXoooOO+@",
".XooOOooXXXooooooOOOoOOooXXXXoOOooooXXXXoooXXooooooOooooXXoooO+@",
".XoOOOOooXoXoooooooOOooXXXoooooOooXXXoooXXooooooooooOOoooooooo+@",
".XoOoOooooooOooXXoOOooXXooooooooXXXooXooooooooOooooOOOOooOoooo+@",
".XOOOooooooOOXXXoooXXoooooXXoooooXXXoooooooOOOooooooOoooooOooo+@",
".XoOooOOooOOOOXoooXXoXoXXooXXXooooooooooooOOOooooOooooooooOOoo+@",
"XXXoOooOOOOooooooooooOooXXoooXXXooooXXooooooOOooOoooooooooOoOo+@",
"XXXooOOOOOooooooXoooOoOOooooXXXooXXXXoooooooooooooooXooooooOOO+@",
"XXoooooOOOOOoooXooOooOOooooXooooooXXooooooOOooooooXXoooooooooOO@",
"XXooooOOOOOXoooXXoOOOOooooooooooXXXoooooOOooOOoooXoXXoooOOooOOO@",
".XoOOOooOoXoooXXXooOOoOOOoooooXXXooooooooOOooooooooXoooOOoOOOoO+",
".XOOOooooOoXXXXXXXoOoXooOOoooooXXXOOooooooOOooXoooooOOOooOOOoo++",
".XooOOooooooXXXXoooooXXXoooooooooooOOOooooooXXoooooooOOOoooooo+@",
".oooooOOooooooXXXoooXXoXXoOooooOooOOOoooooXXXXXoooooOOoooXXooX+@",
"XOooooooooooXXXoooXXXXXoOOooooooOOOoooooXooXXooooooOooooooXXXo+@",
"XOoooooooooooXXXoXXXXooooOOooooooOOOoooooXXXooooXoooooooooXXoo+@",
".oOOOooooXXXoooXXXXooooooooooooOOOooOOoooooooooXXXXoooooXXoXXo+@",
".OOOoooOXXXoooooooXXoooXXoooooOOOooooooooooooXooXXooooXXoXXooo+@",
".XoOOOOoooooooXXoXXooXXXooooOOooOOoooXXoooooooXXXooXooooooXXoX+@",
".oooOOooooOoXXXXXoooooXooXoooOOooooXXXoXoOoooooooXXoooooXooooXO@",
"XooOooooOOXooXXoOOooooooXXoXooooooooXXXoooOooooooooOoooXoXXoXoO+",
"XXXooooOOooXXXoOOoOOoooooXXoooooooOooXooooOOoooooooOOoooXXooXX++",
"XXXXXXooOooooooooOOOOoooooooooooOOoooooooooOOOOoooOOoooXXooXXX+@",
".XXXXooXoooooooooooOOOooooooooOOOooooooOoooOOOooOOOooooooooXoX++",
".XXooXXoooOoooooooOoooooooXooooOOOoXoOoOOoooOOOOOOoooOOOooXXoo+@",
"XXXXooXXooOOooooooooooooXXXXooOoOoXXooOOooooooOO++OOOOOoooXooo+@",
"XXoooooooOOooOOoooooooXXXoooXooooooXXXooooOooOOOO+++OooooooooXO+",
"XooooXXoooooOO+OOoooXXXXXXooooooooXXXooooOOoooooOO+OOOooooooXXO+",
"XXXoXXooooOO++OOooXooXXXooooooooXXooooooooOOOooOO+OOOoooooXXXX++",
"XXXXXXXXoooOO++OOooXXXooXoooooXXoXXoooooOOOOooOO+++OoOOoXXoXXX++",
"@++++OO++OOO+OOOOOOO++++++++++OO+++++++++++++++++++++++++++++++@",
"@@@@++@@++++@@++++++++@@@@@@@@++++@@@@@@@@@@@@@@@@@@@@@@@@@@@@@@"
};
