/* XPM */
static char *quartz_block_lines_top1687106878[] = {
/* columns rows colors chars-per-pixel */
"64 64 5 1 ",
"  c #EAE2DA",
". c #E2DED0",
"X c #DDD9CB",
"o c #EEEAE6",
"O c #F2EFED",
/* pixels */
"   .X.  .     ... oo. oo. oo. oo. oo. ooX.ooX.oo...X....XXXXXXXX",
"  . X.  .     ..  oo. oo. oo. oo. oo. ooX.ooX oo..XX.......XXXXX",
"  . .X.  .     .  oo. oo. oo. oo. oo  oo. oo. oo..X.X.    ..XXXX",
"    ...       . ..oo  oo .oo. oo. oo. oo. oo. oo.X..X   .. .X.XX",
"    ..        .  ..      ..  ....  ..  ..     ...X. .       ..XX",
"     .                  ..  ..X.XXX.XXXX..  ..   .         ....X",
"..   .            oooOOOOOOOOOOOOOOOOOOOOooooo                ..",
".               oOOoOoOOOOOOOOOOOOOOOOooooOOOooo           . ...",
"XX..          oooOOOooOOOOOOOOOOOOOOOOOooooOOOOOoo      . .X....",
"...         oOooOOOOoOOOOoOooOOOOOOOOoooOOOOOOOooooo     ..X.XX.",
"XX...      oOOoOOOOOOOOOooooOooOooOooooOOoOOOooOOOooo    .XXX...",
"XXX.      ooOOOoOOOOOOOOoooOOOOOOOoooooooOOOOOoooOOooo   .XX..  ",
"oooo.    ooOOOOoOOOOOOoooooooOOOooooooOOoooOOOOooooOOoo   X.....",
"oooo..   oOoOOOOOOOoOOOooooOOOOOOoooOOOoooOOOOoooOOOooo   ...   ",
".  ...  ooOOOOOOOOOOooooooOOOOOooOOOOooOOOOOOOOOOOooOOoo  . OOoO",
"XX.. .  oOOOOOOOOOooOooooooooOOOooOOooOoOOOOOOOOOOOOOooo  ..ooOO",
"OOoo . ooOoOOOOOXXX...   ..... .  ....   .  ..XXOOOOooooo. ..   ",
"OooO.  oOooOOOOOXX... ..                  ...X.XOOOOOOOoo.   .. ",
"  ... ooOoOOOOOO.XoooOOOooooOOoooOOOOOooOOoooo..oOOOOOOOoO  oOoo",
"XXX.  OoOOOOOOOO..ooooOooooOOoooOOOOOOOOooOOoo .oOOOOoOOOO  OooO",
"oooO  oOOOoOOoOO. ooOOooooOOOOOoooOOOOOOOooOOo. OoOOoooOOO  . ..",
"Oooo  oOOOooOOoO. ooOOOOOoooooOOoooOooOOOOOOOo. OooOOoooOO .    ",
"..    OOOoOoOOoo. oooOOOOOOoooooOOOooOOOOoOOoo  OoOOOoOoOO..oOOO",
"... . OOOoOOoOoo. OoOoOOOOoooOOOoooOOOOOooOOOo .oOOoOOOooO. OooO",
"OoOO. OoOooOooOo  OOooOOOooOOOOooOOOOOOoOooOOO .OOOooOoOoO .. ..",
"OOoo .OoooooooOo. OooOOOOOOoooOOooOOooOoOOoOOO .OOOooOoOoo      ",
"..   .oOoooooooo. OOoOOoOo....   .. ..oooOOOOO .OOoOoooooo  oOOO",
"...   oOoOoooooo. ooOOOoOo..       ...oOoOOOOO  OOoOOoooOo  oooO",
"oOoo  OooOoooooo  OoOOOOoo .OOOOOOOO. oOOOOOOO  OOoOOoooOo ...XX",
"Oooo  OoOOooOooo  OOOOOOoo  OOOOOOOO .ooOOOOOO .oOooOOooOO.    .",
"      OOOoOoOooo  oOOOoOoo. OOOOOOOO .oOoOOOOO .oOOoOOOoOO..oooO",
"...   OOooOOoooo  oOOooOoO. OOOOOooO  ooOOOOOO .ooOoOOoOOo .OoOO",
"oooo  OOoooOoooo. ooOooOOO. OOOOOOoo  OoOOOOOO  OooooOoOOo  XXXX",
"oooo  OOoOoooooo. ooOooOOoX.OOOOOoOO  OoOOOOOO  OooooOOOOo .....",
"      oOoOOooooO. OoOOooOoX.OOOooOOO .OOOOOOOo .OoOoooOOoO .oooO",
"      ooooOooooO  OooOOoooXXOooOoooo .OOOOOOoo .oOOoooOOoo .OoOO",
"oooo  OooOoOooOO  OOoOOooOX.        ..OOOOoooo..oOooooOoOo    ..",
"oooo  OoOOoOOoOO  OOOOOooO.X...  ...  OOOOOooO .oooooOOoOO ..   ",
"      OOOooOOOOO. OooOOOoOOooOOoooOOOOOOOoooOO .ooOooOOooO. oOOO",
"      OOooooOOOo. OOooOOOOOOOOooOOOOOOOOOOooOO .ooOoOOoooO. Oooo",
"oooo  OOoOooOOOo. ooOOooOOOOOOOOoooOOOOOOOoOOO  ooOOOOoooo....XX",
"oooo  oOOOooOoOo  ooooooooOOOOOOOooooOOOOOOOOO  ooOOOOoOoo.. .. ",
"..    oOOOOoooOO .oooooOOOoooOOOOOOOooOOOOOOoo .OoOOOoOOoo. OooO",
"...   OoOOoooOOO .ooooooOOOoooooOOoooOooOOoooo .oOOOOoOOoO. ooOO",
"..... ooOOoOoOOO..oooooooooOOoooooooooooooOooo..OOOOOOOooO....XX",
"XXX.  oooOOOoOOO.Xoooooooooooooooooooooooooooo.XOoOOOOOoOo.     ",
"...XX. oOOoOOOOO.XX.         ....      .  ...XXXooOOOOOoo.. OooO",
"   .XX.oOooOOOOOXX....    ..  ........  ...XX.XXoOOoOOOoo. .OOOo",
"XXX...  ooooOOOOOOOOOOOOOOOOOOOOOOOooooooOOOOOOOOOOoOOOo .   ..X",
"....    ooOoOOOOOOOOOOOOOOOOOOOOOoooooOOOOOOOOOOOOOOoOoo        ",
"XX...    oOOOOooOOOOOOOOOOOOoOOooOOOOoooOOOOOOOOOOOOooo     oooo",
"...      ooOOOOOooOOOOOOooOOOoooooOOOOoooooOOOOOOOOOOoo    .oooo",
".         oooOOOOoooOOOOOooOOOOoOOOOoooooOOOoOOOOOOOoo      ...X",
"           oOOoooooOOOOOOOOoooOOooooooOOOOOooOOOOoOOo      ..   ",
"   ..       ooooOOOOOOOOOooooOOOOOOooooOOOOoOoOOOooO        oooo",
"..  ..        oooOOOOOOOOOoOOooOoooOOOOOOOOOOooOoo          oooo",
".XXX.           oooooooOOOOOooOOOooooOOOOOooOOoo                ",
"X..               ooooooooOOOOooooooooooOOOOoo               .  ",
"..  ..       ...XXXX.       ..XXXX...   .        .  .        . .",
"...  ..   .    ...X.           .XXX.   .      .  .. .         ..",
"X....     ..oo .oo .Oo  oO  Oo .Oo.Xoo..oo    . ..X.       . ..X",
"X..X..    X.oo  oo .oO  Oo  Oo  oo Xoo .oo    X.X.X.       ..X.X",
"XXX.     .XXoo  oo  oO  Oo  Oo  oO .oo .oo   .X.X.X      . ..XXX",
"XX...    .XXoo  oo  OO  Oo  Oo  oO .oo  oo  ...XX...      ..XXXX"
};
