/* XPM */
static char *quartz_block_lines1687106878[] = {
/* columns rows colors chars-per-pixel */
"64 64 4 1 ",
"  c #EEEAE6",
". c #E2DED0",
"X c #EAE2DA",
"o c #F2EFED",
/* pixels */
"  ..  X.  X.  ..ooX.ooX.  X.  ..  ..  X. oX.  .. oX.ooX.  X.  ..",
"  ..  X.  X.o ..ooX.ooX.  X.o ..  ..o X. oX.  .. oX.ooX.  X.o ..",
"  X.o X.  X.oo..ooX. o..  X.oo..  X. oX.o X.o ..  X.oo..  X. o..",
"  X.o X.  X.oo.. oX. o..o X. o..  X. oX.o X.o ..o X.o ..  X. o..",
" oX.o X.o ..o ..  X.  ..oo.. oX. oX. oX.oo..o ..o X. o..  ..ooX.",
"ooX. oX.o ..o ..  X.o .. o..o X. oX.ooX.oo.. o..ooX. o..  ..ooX.",
"oo.. oX.o .. oX.  ..o X. o..o X.o ..ooX.oo.. oX.oo..  X.  ..ooX.",
"o .. oX.oo.. oX. o..o X.  ..o X.o ..ooX.oo..ooX. o..  X.  ..ooX.",
"o ..  ..oo..ooX. oX.ooX.o ..ooX.o .. o..oo..o X. oX.o X.  ..ooX.",
"o ..  ..oo.. oX.o X. oX.o ..ooX.oo.. o..oo..o X.o X.o X.  ..ooX.",
"oo..o X. o.. o..o X.  X.ooX.ooX.oo..  X.o ..  ..o X.o X. oX.ooX.",
"oo..o X. o..o ..o X.  X.ooX.ooX.oo..o X.  ..  ..ooX.o X. oX.ooX.",
" oX.ooX.o X.o ..ooX.o X. oX. o.. oX.o X.  X.  ..ooX.ooX. oX. o..",
"  X.o X.  X.o .. oX.o X.  X.  ..o X.o X. oX.  ..ooX. oX.  X.  ..",
"o X. o.. oX.ooX. o..o ..o X.  X.  X. o.. oX. oX.o .. o..o X.  X.",
"o X.  .. oX.o X. o..oo..o X.o X.  X.  ..o X.ooX.o ..  ..ooX.  X.",
"oo..o X.oo..o X. o..ooX. o..o X. o..  X.oo..o X.  ..  X.oo..o X.",
"o ..o X.oo..o X.  ..ooX.oo..o X. o..o X.oo..o X.  ..  X. o..o X.",
"  ..o ..o ..  X.  X.ooX. o..ooX.oo..oo.. o..ooX. oX.o X.  ..ooX.",
"  ..oo..o ..  X.o X.ooX.  ..ooX.oo..oo.. o..o X.ooX. oX.o ..ooX.",
" oX.oo..o X.  ..ooX.oo..o ..ooX.o X.oo.. oX.o ..o X. o..o ..ooX.",
" oX.o ..  X. o.. oX.oo..o ..o X.o X.oo.. oX.o ..o X. o..o ..ooX.",
"ooX.  X.  ..oo.. oX.o ..ooX. oX. oX.o X.o ..oo..o X. o..ooX.ooX.",
"ooX.  X.  ..oo..  X.o ..ooX. oX.  X.o X.o .. o..  X.o ..ooX.ooX.",
"ooX. oX. o..o X.  ..o X.ooX.oo..o X. oX.oo.. oX.  ..o X.o X. o..",
"ooX. oX.oo..o X.o ..ooX. oX.oo..ooX.  X.o ..ooX. o..o X.o X.o ..",
"o ..ooX.o ..  X.o X.ooX.o X.o .. o..o X.o ..  X.ooX.o X.o X.o ..",
"o ..o X.  .. oX.o X. oX.o X.o .. o..o X.o ..o X.ooX. oX.  X.oo..",
"o X.o .. oX.oo..o X.  ..oo..o .. oX.o ..  X.oo..ooX.  .. o..o ..",
"  X.o .. oX.oo.. oX.o ..oo.. o..o X.oo.. oX.oo..ooX.o .. o..  ..",
"  X.  ..ooX.o X. oX. o.. o.. o..ooX. o..o X.o X.o X.oo..o ..  ..",
"o X.o ..ooX.o X.ooX. o..  ..  .. oX.  ..ooX.o X.o X.oo..o .. o..",
"o ..o X.o X.  ..ooX.ooX.  X.o ..  ..o X. oX.  ..o X. oX.  X.o ..",
"oo.. oX.o X.  ..ooX.o X.  X.o ..  ..o X. oX.  ..ooX.o X.  X.o ..",
" oX.ooX.  X.o ..ooX.  ..o X.oo..o X. oX.  X. o..ooX.o ..  X.oo..",
"  X.ooX.  X.o ..ooX. o..o X.oo..o X. oX.  X.oo..ooX.oo..  X.oo..",
" oX.o X. o.. o..ooX.o ..o .. oX.ooX. oX.o ..o ..o X. o..o ..ooX.",
"o X.o X. o.. o..ooX.o ..oo.. oX.ooX.  X.o ..oo..  X. o..oo..ooX.",
"o ..o X.o ..ooX.oo..o X. o..  X.oo..o X.o ..ooX. o..  X. o..ooX.",
"o ..ooX.o ..ooX.oo..  X.  ..  X.oo..o X.oo..ooX. o..  X. o..ooX.",
"o ..o ..o .. oX.ooX.  X.  ..o X.oo..oo..oo.. oX.ooX.  X.o ..ooX.",
"oo..o ..oo..  X. oX.  X.o ..o X.oo.. o.. o..  X.o X.o X.oo..ooX.",
"oo..o X.o ..  .. oX.  X. oX. oX.oo.. oX.  ..o ..o X.o X.ooX.ooX.",
"oo..ooX.o ..  .. oX.  X.  X.ooX.oo..  X.o ..o ..ooX.ooX.ooX.ooX.",
"o X. oX. oX.o ..o X. oX.o X. o..o X.  X. oX.o ..ooX.ooX.ooX. o..",
"  X.  X.  X.o ..  X. oX.o X.  ..o X.  X. oX.o ..ooX.ooX.ooX.  ..",
" oX.o ..  X. oX.  ..o .. oX.  X.  X.o .. oX.ooX.oo..o ..ooX.  X.",
" oX.o ..o X. oX. o..o .. oX.o X. oX. o..ooX.ooX.o ..o ..ooX.  X.",
"oo..o X.o ..  X. o..ooX.oo..o X.oo..ooX.oo.. oX.o ..o X. o..o X.",
"oo..ooX.oo..  X. o..ooX.oo..o X.o ..ooX.oo.. oX.o .. oX. o..o X.",
" o..oo.. o..  X. oX.o X.o ..ooX.o .. o..o .. oX. oX. oX.  .. oX.",
"  ..oo.. o..o X.ooX. oX.  ..ooX.o .. o..o ..o X. oX.  X.  .. oX.",
"o X.oo..  X.oo..o X. o..  ..o X. oX. o..o X.o ..  X.  ..o .. oX.",
"o X.oo..  X.o ..o X.  ..  ..o X.  X.o ..  X.o ..  X.o .. o..ooX.",
"o X.o X.  ..o ..  X.  .. oX. oX.o X.  X.  ..oo..  X.o ..ooX.ooX.",
"o X.  X.  .. o..  X.o ..o X. oX.o X.  X.  ..oo..o X.o ..ooX.ooX.",
"ooX. oX.o .. oX. o.. oX.o X. o..ooX. oX.o ..ooX.o ..o X.ooX.oo..",
" oX.ooX. o.. oX. o.. oX.ooX.oo.. oX. oX. o.. oX.o ..ooX.ooX.oo..",
"  ..o X. o..  X.ooX. oX.ooX.o ..  ..ooX. o..  X.ooX.ooX.ooX.o ..",
"  ..o X. o..  X.ooX.ooX.o X.o ..  ..ooX. o..o X.ooX.ooX.o X.o ..",
"  X. o..  X. o..ooX.o ..o ..o ..  X.o ..ooX.oo.. oX.o ..o .. o..",
"  X. o..o X.oo..ooX.  .. o..  ..  X.o ..ooX. o..  X.  .. o.. o..",
"  X.  ..o X.o X.ooX. o..  ..  ..  X.  ..ooX.  X.  X. o..  ..  ..",
"  X.  .. oX.  X.ooX.oo..  ..  ..  X.  ..ooX.  X.o X.oo..  ..  .."
};
